Coordinates
version=1
nRows=17
nColumns=36
inDegrees=yes

Units are S.I. units (second, meters, Newtons, ...)
If the header above contains a line with 'inDegrees', this indicates whether rotational values are in degrees (yes) or radians (no).

endheader
time	pelvis_tilt	pelvis_list	pelvis_rotation	pelvis_tx	pelvis_ty	pelvis_tz	hip_flexion_r	hip_adduction_r	hip_rotation_r	knee_angle_r	knee_angle_r_beta	ankle_angle_r	subtalar_angle_r	mtp_angle_r	hip_flexion_l	hip_adduction_l	hip_rotation_l	knee_angle_l	knee_angle_l_beta	ankle_angle_l	subtalar_angle_l	mtp_angle_l	lumbar_extension	lumbar_bending	lumbar_rotation	arm_flex_r	arm_add_r	arm_rot_r	elbow_flex_r	pro_sup_r	arm_flex_l	arm_add_l	arm_rot_l	elbow_flex_l	pro_sup_l
      1.43333330	     -3.32623659	      1.28247733	      1.31845001	      0.18128369	      1.23501372	     -0.57641792	      5.15398670	     -0.98051293	      0.98490743	      8.57218308	      0.14961282	     11.02222170	     -9.91780495	     -7.49999680	      3.66866176	      0.30976007	     -1.09957157	      8.51368411	      0.14859182	      9.31765133	     -0.81336881	     -7.49999680	     -7.60123808	     -1.07619123	      2.01154944	      2.17889855	    -11.13247964	     21.52882798	     21.55961554	     52.85966471	     -0.07037983	    -12.59795061	     22.75225599	     20.26210389	     53.51467141
      1.45000000	     -3.40325344	      1.28987808	      1.15606117	      0.18077546	      1.23454594	     -0.57640564	      5.50510218	     -0.98558917	      1.10922458	      8.81230790	      0.15380379	     10.87119119	    -10.08636036	     -7.49999720	      4.02239809	      0.28659456	     -1.26870227	      8.85436083	      0.15453775	      9.34154216	     -0.97454970	     -7.49999720	     -8.30174510	     -1.06960337	      1.95642587	      2.10858928	    -11.26777814	     20.91266988	     21.22155057	     53.04671197	     -0.23864850	    -12.76056714	     22.16468797	     19.97460538	     53.69299125
      1.46666670	     -3.57055023	      1.27218786	      1.02762166	      0.18121980	      1.23451225	     -0.57635824	      5.93612935	     -0.96042131	      1.23911387	      9.08630215	      0.15858589	     10.81453601	    -10.14073916	     -7.49999750	      4.50736838	      0.21980114	     -1.42161316	      9.27723650	      0.16191832	      9.33365908	     -1.15685616	     -7.49999750	     -8.86404522	     -1.02098689	      1.86615906	      1.88963586	    -11.33455717	     20.24732697	     20.64543614	     53.18606391	     -0.35458931	    -12.83594264	     21.57152575	     19.65362957	     53.85500375
      1.48333330	     -3.87183447	      1.29695075	      0.90272770	      0.18108700	      1.23378282	     -0.57647818	      6.54467420	     -0.99837837	      1.33352913	      9.44110206	      0.16477832	     10.83876751	    -10.12030888	     -7.49999795	      5.15583608	      0.20536443	     -1.60409700	      9.75253078	      0.17021377	      9.43429291	     -1.14745689	     -7.49999795	     -9.39614755	     -0.92455792	      1.70319511	      1.63292737	    -11.41766795	     19.38661350	     20.07201512	     53.46316870	     -0.62847456	    -12.78516908	     20.87343592	     19.38198285	     54.18103562
      1.50000000	     -4.02893207	      1.34686423	      0.75157303	      0.18183852	      1.23382602	     -0.57638489	      6.96837605	     -1.04976339	      1.52681217	      9.74152013	      0.17002160	     10.79552626	    -10.30277325	     -7.49999814	      5.58227842	      0.22416917	     -1.75899489	     10.14848539	      0.17712448	      9.49966834	     -1.29714188	     -7.49999814	    -10.06305330	     -0.87459457	      1.65599118	      1.21503776	    -11.60810057	     18.88448648	     19.73473072	     53.89171945	     -0.86697522	    -12.80001950	     20.48774390	     19.42322183	     54.61268438
      1.51666670	     -4.13903473	      1.43068875	      0.77199584	      0.18975871	      1.23349747	     -0.57941497	      7.04057103	     -1.17878112	      1.61038989	      9.71549472	      0.16956737	     10.83698608	    -10.26210103	     -7.49999814	      5.71807231	      0.31489127	     -1.92455206	     10.22824191	      0.17851650	      9.42579768	     -1.33548680	     -7.49999814	    -10.73115500	     -0.76195417	      1.33925307	      0.08442137	    -11.98065145	     18.85611103	     19.20741891	     53.86215017	     -1.48130027	    -12.79538240	     20.50945348	     19.20120910	     54.60237169
      1.53333330	     -4.50773982	      1.39568910	      0.83342105	      0.18266675	      1.23353904	     -0.57635902	      7.37152278	     -1.18832194	      1.39490301	      9.58538913	      0.16729660	     11.04487766	     -9.82949897	     -7.49999818	      6.37679020	      0.26490619	     -2.06950742	     10.66786971	      0.18618945	      9.47894503	     -1.33980424	     -7.49999818	    -10.79241538	     -0.46750059	      1.29512588	     -1.06900250	    -12.28947052	     18.44638996	     17.99853709	     53.67292143	     -2.02996560	    -12.72861720	     20.46943438	     19.34467108	     54.53054412
      1.55000000	     -4.66826194	      1.42962964	      0.71343432	      0.19668966	      1.23315865	     -0.57454462	      7.27193825	     -1.21247505	      1.69049489	      9.30707032	      0.16243902	     11.08800190	    -10.01694292	     -7.49999813	      6.35464366	      0.25506266	     -2.31565335	     10.61802588	      0.18531951	      9.26248832	     -1.31752355	     -7.49999813	    -10.96062710	     -0.32572931	      1.23373713	     -2.63753908	    -12.47833107	     17.29498647	     17.37953237	     53.68919429	     -3.13346429	    -12.91629110	     19.75630288	     19.84016267	     54.63983151
      1.56666670	     -4.92202000	      1.46264687	      0.86794565	      0.19178780	      1.23320424	     -0.57946999	      7.33455793	     -1.31632917	      1.49507589	      9.07790454	      0.15843932	     11.23721784	     -9.83612232	     -7.49999815	      6.63470149	      0.31601632	     -2.33236142	     10.73568329	      0.18737302	      9.18553785	     -1.22455350	     -7.49999815	    -11.27006199	     -0.11163780	      0.99705336	     -4.03658934	    -12.86223528	     17.18701815	     16.70106062	     53.66627042	     -3.66509325	    -12.91733406	     19.79049674	     19.94584878	     54.64749358
      1.58333330	     -5.09307565	      1.46949738	      0.97085264	      0.19740010	      1.23267501	     -0.57482524	      7.27766497	     -1.32802252	      1.48269754	      8.94738121	      0.15616126	     11.34095032	     -9.73654854	     -7.49999815	      6.78772163	      0.30730743	     -2.45162777	     10.85649898	      0.18948165	      9.12075024	     -1.23421210	     -7.49999815	    -11.55788211	      0.05603675	      0.88192701	     -5.30483860	    -13.12781168	     17.14083354	     16.22070758	     53.65454673	     -4.26026529	    -13.04028796	     19.79800843	     20.02497570	     54.65158417
      1.60000000	     -5.51887825	      1.38611569	      1.23480136	      0.19840385	      1.23252948	     -0.57492147	      7.40547789	     -1.26797929	      1.28496313	      8.65327475	      0.15102814	     11.50315568	     -9.47887274	     -7.49999834	      7.27164580	      0.19988909	     -2.58218387	     11.02907916	      0.19249374	      9.15414205	     -1.24494186	     -7.49999834	    -11.59075537	      0.32831423	      1.11664387	     -7.25882939	    -13.45912464	     16.54294903	     16.11788204	     54.12388349	     -5.02477325	    -13.47366617	     19.48485215	     21.72415591	     55.16402345
      1.61666670	     -5.81657462	      1.35561424	      1.41583092	      0.19826700	      1.23191177	     -0.57522104	      7.54462072	     -1.24366536	      1.27180219	      8.58753257	      0.14988072	     11.55180810	     -9.54619451	     -7.49999849	      7.63771827	      0.14476093	     -2.77036454	     11.17498001	      0.19504019	      9.08945846	     -1.23890465	     -7.49999849	    -11.87969558	      0.56939746	      1.09306035	     -9.45201191	    -13.80830468	     16.03075263	     15.87389716	     54.53680081	     -5.82251634	    -13.96523938	     19.19117771	     23.17342620	     55.65114861
      1.63333330	     -6.29073736	      1.34829177	      1.56261308	      0.19947056	      1.23185765	     -0.57527489	      7.96368136	     -1.29013822	      1.07253537	      8.60914554	      0.15025794	     11.62009140	     -9.45802539	     -7.49999861	      8.16526551	      0.14112640	     -2.98666389	     11.31336755	      0.19745551	      9.15249913	     -1.07244950	     -7.49999861	    -12.10586362	      0.70488512	      1.17591426	    -11.47833179	    -14.19618620	     15.78404611	     16.05413718	     54.69537591	     -6.50860953	    -14.40881470	     19.16262450	     24.65270484	     55.96573884
      1.65000000	     -6.44550035	      1.33625732	      1.65091837	      0.20505657	      1.23551881	     -0.57096542	      7.94603201	     -1.25260133	      1.08707992	      8.55817047	      0.14936825	     11.70609655	     -9.51678245	     -7.49999861	      8.36710282	      0.05797506	     -3.17985775	     11.48351162	      0.20042509	      9.07496714	     -1.09834204	     -7.49999861	    -12.61663747	      0.77199556	      0.92991096	    -12.74437927	    -14.37670677	     15.78716874	     15.55320790	     54.68142079	     -6.88106368	    -14.76690726	     19.15947660	     24.67871497	     55.98684978
      1.66666670	     -6.88352891	      1.19428229	      1.75251594	      0.20597920	      1.23509157	     -0.57106686	      8.24679711	     -1.06807428	      1.12358645	      8.44535308	      0.14739922	     11.53941093	     -9.94559546	     -7.49999878	      8.85708280	     -0.17085587	     -3.56866875	     11.69156483	      0.20405630	      9.20058979	     -0.66792425	     -7.49999878	    -13.10850206	      0.73123688	      1.58612525	    -14.27787182	    -14.39931832	     15.55547739	     15.45515080	     54.79230623	     -7.32137199	    -15.85890722	     20.00874551	     27.52566913	     56.96374921
      1.68333330	     -7.49148299	      1.13910981	      1.72411475	      0.20610960	      1.23402293	     -0.57162936	      8.88208106	     -1.01418563	      1.07750844	      8.51604355	      0.14863300	     11.50993117	    -10.21250231	     -7.49999893	      9.71390476	     -0.28268038	     -3.74781451	     12.23221383	      0.21349241	      9.29642304	     -0.69000331	     -7.49999893	    -13.61291104	      0.60769417	      1.63554840	    -15.04703656	    -14.77416106	     15.57048595	     15.88412670	     55.31961305	     -7.65983941	    -16.32546409	     20.12387912	     28.85620600	     57.58350660
      1.70000000	     -8.02266063	      1.06379610	      1.70144594	      0.20710366	      1.23344136	     -0.57177803	      9.54457707	     -0.93918255	      1.05560688	      8.80301780	      0.15364164	     11.53806825	    -10.46978489	     -7.49999901	     10.53655293	     -0.42017043	     -3.91547377	     12.86197111	      0.22448374	      9.51791419	     -0.72092926	     -7.49999901	    -14.25163713	      0.49322526	      1.88976501	    -15.43516345	    -15.01439784	     15.83307508	     15.53371342	     55.77221217	     -7.66484303	    -16.80093584	     20.41525461	     29.97574981	     58.10410972
